<svg width="160" height="114" viewBox="0 0 160 114" fill="none" xmlns="http://www.w3.org/2000/svg">
<path d="M24.9627 14.4185C21.5967 11.1145 21.4907 5.76351 24.7257 2.46751C27.9607 -0.828493 33.3127 -0.821493 36.6787 2.48251C39.2337 4.99051 49.8687 22.7435 49.8687 22.7435L45.4647 27.2305C45.4647 27.2305 27.5177 16.9265 24.9627 14.4185Z" fill="#0091C8"/>
<path d="M30.8571 16.548C27.8961 14.175 26.4431 11.07 27.6101 9.61304C28.7781 8.15604 32.1241 8.89904 35.0851 11.272C37.0951 12.883 46.2971 22.419 48.2231 24.42L46.3141 26.364C43.5081 24.654 32.8061 18.11 30.8571 16.548Z" fill="#0073AA"/>
<path d="M69.0388 14.4185C72.4048 11.1145 72.5108 5.76351 69.2758 2.46751C66.0408 -0.828493 60.6888 -0.821493 57.3228 2.48251C54.7678 4.99051 44.1328 22.7435 44.1328 22.7435L48.5368 27.2305C48.5368 27.2305 66.4838 16.9265 69.0388 14.4185Z" fill="#0091C8"/>
<path d="M63.1394 16.548C66.1004 14.175 67.5534 11.07 66.3864 9.61304C65.2184 8.15604 61.8714 8.89904 58.9114 11.272C56.9014 12.883 47.6994 22.419 45.7734 24.42L47.6824 26.364C50.4884 24.654 61.1904 18.11 63.1394 16.548Z" fill="#0073AA"/>
<path d="M65.6147 45.2109H5.67969V97.5749H65.6147V45.2109Z" fill="#FF8C46"/>
<path d="M65.6147 97.5742H88.0117V45.2102H65.6147V97.5742Z" fill="#FF640A"/>
<path d="M65.613 27.2305H0V45.2115H65.613V27.2305Z" fill="#FFB478"/>
<path d="M23.974 27.2305H0V45.2115H23.974V27.2305Z" fill="#FFC494"/>
<path d="M16.0076 27.2305H8.51562V45.2115H16.0076V27.2305Z" fill="#FFD1AB"/>
<path d="M65.6132 45.2109H92.7422V27.2299L65.6132 27.2299V45.2109Z" fill="#FF8C46"/>
<path d="M40.6917 27.2305H30.5977V97.5755H40.6917V27.2305Z" fill="#0091C8"/>
<path opacity="0.19" d="M65.7695 74.7034V64.6094L5.67654 64.6094V74.7034L65.7695 74.7034Z" fill="black"/>
<path d="M80.7568 27.2305H74.1328V97.5755H80.7568V27.2305Z" fill="#0073AA"/>
<path d="M65.7695 72.4963V62.4023L5.67653 62.4023V72.4963L65.7695 72.4963Z" fill="#41B4E6"/>
<path opacity="0.19" d="M88.3242 74.7034V64.6094H65.7692V74.7034H88.3242Z" fill="black"/>
<path d="M88.3242 72.4963V62.4023L65.7692 62.4023V72.4963H88.3242Z" fill="#0091C8"/>
<path d="M72.1132 26.504C76.6872 25.35 79.4782 20.784 78.3492 16.306C77.2192 11.828 72.5962 9.13304 68.0222 10.286C64.5502 11.162 46.4102 21.121 46.4102 21.121L47.9482 27.217C47.9482 27.217 68.6412 27.38 72.1132 26.504Z" fill="#41B4E6"/>
<path d="M65.9494 25.3639C69.7034 24.8089 72.5254 22.8629 72.2524 21.0159C71.9794 19.1689 68.7154 18.1209 64.9614 18.6759C62.4134 19.0519 49.6564 22.6409 46.9844 23.3969L47.6504 26.0389C50.9364 25.9779 63.4784 25.7289 65.9494 25.3639Z" fill="#0091C8"/>
<path d="M21.5804 26.504C17.0064 25.35 14.2154 20.784 15.3444 16.306C16.4744 11.828 21.0974 9.13304 25.6714 10.286C29.1434 11.162 47.2834 21.121 47.2834 21.121L45.7454 27.217C45.7454 27.217 25.0524 27.38 21.5804 26.504Z" fill="#41B4E6"/>
<path d="M27.7431 25.3639C23.9891 24.8089 21.1671 22.8629 21.4401 21.0159C21.7131 19.1689 24.9771 18.1209 28.7311 18.6759C31.2791 19.0519 44.0361 22.6409 46.7081 23.3969L46.0421 26.0389C42.7571 25.9779 30.2151 25.7289 27.7431 25.3639Z" fill="#0091C8"/>
<path d="M48.7556 27.2409C50.0936 24.9509 51.0206 20.6509 51.0206 19.0669C51.0206 16.8679 49.2376 15.0859 47.0396 15.0859C44.8416 15.0859 43.0586 16.8679 43.0586 19.0669C43.0586 20.6499 43.9856 24.9509 45.3236 27.2409H48.7556Z" fill="#0073AA"/>
<path opacity="0.19" d="M65.6157 45.2109L5.67969 48.8389V45.2109H65.6157Z" fill="black"/>
<path opacity="0.19" d="M88.0103 45.2109H65.6133L88.0103 47.9709V45.2109Z" fill="black"/>
<path d="M86.928 58.9248C84.205 56.2518 84.119 51.9238 86.736 49.2578C89.353 46.5918 93.682 46.5968 96.405 49.2698C98.472 51.2988 107.075 65.6588 107.075 65.6588L103.513 69.2878C103.513 69.2878 88.995 60.9538 86.928 58.9248Z" fill="#C8462D"/>
<path d="M91.6986 60.6472C89.3036 58.7272 88.1276 56.2162 89.0726 55.0372C90.0176 53.8582 92.7246 54.4592 95.1196 56.3792C96.7456 57.6822 104.19 65.3962 105.748 67.0142L104.204 68.5872C101.933 67.2042 93.2756 61.9112 91.6986 60.6472Z" fill="#AA321E"/>
<path d="M122.585 58.9248C125.308 56.2518 125.394 51.9238 122.777 49.2578C120.16 46.5918 115.831 46.5968 113.108 49.2698C111.041 51.2988 102.438 65.6588 102.438 65.6588L106.001 69.2878C106.001 69.2878 120.518 60.9538 122.585 58.9248Z" fill="#C8462D"/>
<path d="M117.815 60.6472C120.21 58.7272 121.386 56.2162 120.441 55.0372C119.496 53.8582 116.789 54.4592 114.394 56.3792C112.768 57.6822 105.324 65.3962 103.766 67.0142L105.31 68.5872C107.581 67.2042 116.238 61.9112 117.815 60.6472Z" fill="#AA321E"/>
<path d="M125.069 68.7013C128.769 67.7683 131.027 64.0743 130.113 60.4523C129.199 56.8293 125.459 54.6493 121.759 55.5833C118.951 56.2913 104.277 64.3483 104.277 64.3483L105.521 69.2793C105.521 69.2793 122.26 69.4103 125.069 68.7013Z" fill="#E16450"/>
<path d="M120.084 67.7802C123.12 67.3322 125.403 65.7572 125.182 64.2632C124.961 62.7692 122.321 61.9212 119.284 62.3702C117.223 62.6742 106.903 65.5772 104.742 66.1892L105.281 68.3262C107.939 68.2772 118.085 68.0752 120.084 67.7802Z" fill="#C8462D"/>
<path d="M84.1923 68.7013C80.4923 67.7683 78.2343 64.0743 79.1483 60.4523C80.0623 56.8293 83.8023 54.6493 87.5023 55.5833C90.3103 56.2913 104.984 64.3483 104.984 64.3483L103.74 69.2793C103.74 69.2793 87.0003 69.4103 84.1923 68.7013Z" fill="#E16450"/>
<path d="M89.1792 67.7802C86.1432 67.3322 83.8602 65.7572 84.0812 64.2632C84.3022 62.7692 86.9422 61.9212 89.9792 62.3702C92.0402 62.6742 102.36 65.5772 104.521 66.1892L103.982 68.3262C101.324 68.2772 91.1782 68.0752 89.1792 67.7802Z" fill="#C8462D"/>
<path d="M106.176 69.2939C107.259 67.4419 108.008 63.9629 108.008 62.6819C108.008 60.9029 106.566 59.4609 104.787 59.4609C103.008 59.4609 101.566 60.9029 101.566 62.6819C101.566 63.9629 102.316 67.4419 103.398 69.2939H106.176Z" fill="#AA321E"/>
<path d="M132.771 83.4961H55.8008V113.148H132.771V83.4961Z" fill="#827DDC"/>
<path d="M132.767 113.148H155.164V83.4964H132.767V113.148Z" fill="#6E64C3"/>
<path d="M132.769 69.3008H50.1211V83.4958H132.769V69.3008Z" fill="#8E88F0"/>
<path d="M80.5621 69.3008H50.1211V83.4958H80.5621V69.3008Z" fill="#9A95F0"/>
<path d="M71.0981 69.3008H58.4141V83.4958H71.0981V69.3008Z" fill="#ABA6FF"/>
<path d="M132.769 83.4961H159.898V69.3011H132.769V83.4961Z" fill="#827DDC"/>
<path d="M100.081 69.3008H88.4883V113.148H100.081V69.3008Z" fill="#E16450"/>
<path d="M146.788 69.3008H141.148V113.148H146.788V69.3008Z" fill="#AA321E"/>
<path opacity="0.19" d="M104.522 88.6994L99.5816 86.9644L94.6406 88.6994V71.1914H104.522V88.6994Z" fill="black"/>
<path opacity="0.19" d="M112.018 95.7964L107.077 94.0614L102.137 95.7964V71.1914H112.018V95.7964Z" fill="black"/>
<path opacity="0.19" d="M55.8008 83.4961V86.8081L132.771 83.4961H55.8008Z" fill="black"/>
<path d="M104.522 86.8078L99.5816 85.0728L94.6406 86.8078V69.3008H104.522V86.8078Z" fill="#C8462D"/>
<path d="M112.018 93.9058L107.077 92.1708L102.137 93.9058V69.3008H112.018V93.9058Z" fill="#E16450"/>
<path opacity="0.19" d="M132.77 83.4961H155.167V84.9151L132.77 83.4961Z" fill="black"/>
</svg>
