<svg width="454" height="300" viewBox="0 0 454 300" fill="none" xmlns="http://www.w3.org/2000/svg">
<path d="M63.8011 42.3205C64.6661 42.5615 65.7961 42.6655 67.0771 42.2715C69.0611 44.5715 71.8121 46.2225 74.4861 47.1795C75.4831 47.5365 76.5811 47.0165 76.9391 46.0195C77.2961 45.0215 76.7761 43.9235 75.7791 43.5665C73.7841 42.8535 71.8141 41.7235 70.3611 40.2005C72.0001 38.5675 75.9361 33.0675 74.5381 29.2345C73.7901 27.3515 72.2611 26.3135 70.4481 26.4595C67.7101 26.6775 65.0461 29.6165 64.4931 32.1075C63.9591 34.5505 64.1721 36.7325 64.8891 38.6415C64.8671 38.6365 64.8471 38.6305 64.8291 38.6255C62.8811 38.0825 60.8121 34.7475 59.6411 31.3755C61.9581 30.8945 63.9841 29.4215 65.4161 27.1505C66.7341 25.0595 66.3151 22.2895 64.3731 20.2605C62.6521 18.4625 60.1501 18.3705 58.1601 20.0195C56.1051 21.6875 55.0091 23.9995 54.9151 26.7195C54.3951 26.3795 53.8881 25.9545 53.4051 25.4485C50.2871 22.1915 50.7771 16.4555 52.7381 14.5785C53.5031 13.8465 53.5301 12.6315 52.7971 11.8655C52.0641 11.0995 50.8501 11.0735 50.0841 11.8065C46.5491 15.1905 46.1081 23.3745 50.6331 28.1015C52.1181 29.6525 53.8051 30.7055 55.5671 31.2075C56.5941 34.8565 59.4181 41.1015 63.8011 42.3205ZM68.2401 32.9335C68.5441 31.5705 70.2411 30.2025 70.7481 30.2635C70.7761 30.2845 70.8711 30.3955 70.9531 30.5985C71.3571 31.7075 69.8451 34.8525 68.3191 36.7425C67.9931 35.5935 67.9371 34.3225 68.2401 32.9335ZM60.5951 22.9855C61.1951 22.4885 61.4021 22.7045 61.6021 22.9135C62.2941 23.6365 62.5271 24.5375 62.1701 25.1055C61.8611 25.5975 61.5171 26.0235 61.1441 26.3805C60.4421 27.0525 59.6391 27.4775 58.7621 27.6385C58.6251 25.6475 59.2441 24.0825 60.5951 22.9855Z" fill="#6FC4E8"/>
<path d="M305.203 197.443C305.411 196.709 305.504 195.751 305.174 194.662C307.135 192.987 308.547 190.659 309.371 188.392C309.678 187.547 309.241 186.613 308.396 186.305C307.55 185.998 306.616 186.435 306.309 187.28C305.696 188.97 304.728 190.638 303.43 191.865C302.051 190.467 297.398 187.104 294.138 188.274C292.536 188.901 291.65 190.195 291.765 191.735C291.939 194.06 294.423 196.333 296.535 196.813C298.607 197.276 300.46 197.104 302.083 196.503C302.078 196.522 302.074 196.538 302.069 196.554C301.6 198.205 298.76 199.948 295.894 200.929C295.495 198.96 294.253 197.234 292.331 196.009C290.561 194.882 288.208 195.226 286.478 196.866C284.945 198.32 284.856 200.443 286.248 202.139C287.655 203.891 289.614 204.83 291.922 204.921C291.631 205.361 291.268 205.789 290.837 206.198C288.059 208.831 283.192 208.392 281.607 206.72C280.988 206.068 279.957 206.04 279.305 206.659C278.652 207.278 278.625 208.309 279.244 208.961C282.102 211.976 289.048 212.383 293.079 208.561C294.402 207.307 295.303 205.879 295.736 204.385C298.837 203.531 304.15 201.159 305.203 197.443ZM297.252 193.637C296.097 193.374 294.942 191.927 294.996 191.497C295.013 191.473 295.108 191.393 295.281 191.325C296.224 190.986 298.888 192.283 300.486 193.586C299.509 193.857 298.43 193.899 297.252 193.637ZM288.776 200.086C288.357 199.575 288.541 199.4 288.719 199.231C289.335 198.647 290.101 198.452 290.582 198.758C290.998 199.023 291.358 199.316 291.66 199.634C292.228 200.233 292.585 200.916 292.718 201.661C291.028 201.769 289.702 201.238 288.776 200.086Z" fill="#6FC4E8"/>
<path d="M213.515 29.5278C214.001 29.4888 214.597 29.3308 215.177 28.8898C216.619 29.6918 218.332 30.0198 219.875 30.0078C220.45 30.0038 220.912 29.5328 220.908 28.9568C220.903 28.3808 220.434 27.9188 219.858 27.9228C218.707 27.9328 217.49 27.7248 216.464 27.2198C216.995 26.0798 217.973 22.5388 216.543 20.8448C215.809 20.0238 214.835 19.7808 213.938 20.1938C212.582 20.8168 211.773 22.8148 211.957 24.1888C212.142 25.5348 212.659 26.6078 213.382 27.4478C213.37 27.4488 213.358 27.4498 213.347 27.4508C212.252 27.5378 210.573 26.2238 209.345 24.7228C210.437 24.0438 211.194 22.9138 211.5 21.4878C211.781 20.1748 211.049 18.8398 209.679 18.1688C208.465 17.5738 207.172 17.9948 206.466 19.2078C205.73 20.4428 205.602 21.8278 206.063 23.2328C205.734 23.1568 205.397 23.0348 205.056 22.8668C202.856 21.7888 202.032 18.7708 202.681 17.4468C202.934 16.9298 202.722 16.3058 202.205 16.0518C201.688 15.7988 201.063 16.0118 200.809 16.5288C199.639 18.9158 200.946 23.1738 204.138 24.7388C205.186 25.2518 206.242 25.4738 207.235 25.3998C208.443 27.0688 211.051 29.7258 213.515 29.5278ZM214.024 23.9098C213.924 23.1578 214.534 22.1428 214.804 22.0788C214.822 22.0838 214.89 22.1228 214.97 22.2118C215.383 22.7018 215.201 24.5888 214.776 25.8388C214.395 25.3128 214.13 24.6748 214.024 23.9098ZM208.263 20.2648C208.476 19.8988 208.622 19.9708 208.763 20.0398C209.251 20.2788 209.539 20.6948 209.463 21.0518C209.397 21.3608 209.302 21.6418 209.179 21.8938C208.947 22.3678 208.615 22.7348 208.198 22.9808C207.756 21.9918 207.779 21.0778 208.263 20.2648Z" fill="#6FC4E8"/>
<path d="M4.35397 199.712C4.40297 200.609 4.66697 201.712 5.45197 202.799C3.90997 205.416 3.22897 208.55 3.17997 211.391C3.16197 212.45 4.00697 213.323 5.06597 213.342C6.12597 213.36 6.99897 212.516 7.01697 211.456C7.05197 209.338 7.48997 207.109 8.46697 205.245C10.54 206.274 17.011 208.237 20.194 205.684C21.738 204.372 22.23 202.591 21.511 200.92C20.426 198.397 16.788 196.817 14.251 197.091C11.766 197.369 9.76797 198.27 8.18997 199.562C8.18797 199.539 8.18697 199.519 8.18597 199.5C8.07497 197.481 10.571 194.451 13.388 192.261C14.587 194.301 16.632 195.748 19.242 196.376C21.646 196.953 24.134 195.668 25.433 193.178C26.584 190.971 25.868 188.572 23.668 187.216C21.429 185.804 18.887 185.508 16.281 186.291C16.437 185.69 16.677 185.073 17 184.453C19.085 180.455 24.675 179.079 27.082 180.334C28.021 180.824 29.18 180.46 29.67 179.52C30.16 178.58 29.795 177.422 28.856 176.932C24.517 174.669 16.624 176.877 13.598 182.679C12.605 184.583 12.149 186.519 12.239 188.348C9.11097 190.492 4.10297 195.169 4.35397 199.712ZM14.669 200.905C16.057 200.755 17.897 201.924 18.003 202.424C17.993 202.457 17.918 202.582 17.752 202.725C16.832 203.463 13.367 203.04 11.088 202.201C12.07 201.525 13.256 201.064 14.669 200.905ZM21.639 190.473C22.302 190.882 22.164 191.147 22.03 191.404C21.567 192.291 20.789 192.801 20.136 192.645C19.571 192.51 19.057 192.321 18.6 192.082C17.738 191.633 17.078 191.008 16.645 190.229C18.485 189.461 20.166 189.545 21.639 190.473Z" fill="#FFDC4F"/>
<path d="M146.305 16.2408C145.442 15.9938 144.313 15.8818 143.029 16.2668C141.062 13.9528 138.323 12.2817 135.656 11.3047C134.662 10.9407 133.56 11.4527 133.195 12.4467C132.831 13.4417 133.342 14.5437 134.337 14.9077C136.326 15.6347 138.289 16.7797 139.73 18.3127C138.079 19.9337 134.103 25.4047 135.473 29.2477C136.207 31.1357 137.728 32.1847 139.543 32.0527C142.282 31.8547 144.968 28.9347 145.539 26.4487C146.09 24.0097 145.894 21.8267 145.191 19.9127C145.213 19.9187 145.233 19.9237 145.251 19.9287C147.195 20.4857 149.24 23.8367 150.386 27.2157C148.066 27.6797 146.028 29.1387 144.58 31.3987C143.247 33.4807 143.646 36.2527 145.573 38.2957C147.281 40.1057 149.782 40.2167 151.784 38.5817C153.852 36.9287 154.964 34.6247 155.078 31.9057C155.595 32.2497 156.099 32.6787 156.579 33.1877C159.673 36.4677 159.141 42.1997 157.167 44.0617C156.396 44.7887 156.361 46.0027 157.088 46.7737C157.815 47.5447 159.029 47.5797 159.8 46.8527C163.36 43.4947 163.861 35.3137 159.37 30.5537C157.897 28.9917 156.217 27.9267 154.459 27.4117C153.457 23.7567 150.679 17.4918 146.305 16.2408ZM141.798 25.5947C141.484 26.9547 139.777 28.3107 139.27 28.2467C139.242 28.2257 139.148 28.1137 139.068 27.9107C138.672 26.7987 140.207 23.6647 141.747 21.7857C142.064 22.9367 142.11 24.2077 141.798 25.5947ZM149.37 35.5988C148.767 36.0918 148.561 35.8737 148.363 35.6627C147.676 34.9347 147.45 34.0317 147.811 33.4667C148.124 32.9777 148.471 32.5537 148.846 32.1997C149.553 31.5327 150.359 31.1137 151.237 30.9597C151.359 32.9507 150.729 34.5108 149.37 35.5988Z" fill="#FFDC4F"/>
<path d="M354.151 28.907C354.213 28.367 354.168 27.681 353.811 26.953C354.999 25.549 355.725 23.747 356.044 22.057C356.163 21.427 355.748 20.819 355.118 20.7C354.487 20.581 353.88 20.996 353.761 21.626C353.524 22.886 353.035 24.172 352.261 25.185C351.129 24.359 347.467 22.527 345.307 23.726C344.252 24.352 343.776 25.365 344.035 26.435C344.425 28.052 346.435 29.366 347.977 29.461C349.489 29.549 350.773 29.215 351.847 28.605C351.846 28.619 351.844 28.631 351.843 28.643C351.703 29.86 349.904 31.413 347.999 32.433C347.492 31.093 346.419 30.021 344.925 29.379C343.549 28.789 341.933 29.302 340.903 30.656C339.991 31.856 340.173 33.361 341.348 34.395C342.54 35.466 344.027 35.902 345.662 35.701C345.508 36.044 345.302 36.387 345.045 36.725C343.392 38.899 339.915 39.149 338.607 38.154C338.096 37.766 337.367 37.865 336.979 38.376C336.59 38.887 336.69 39.616 337.201 40.004C339.56 41.798 344.496 41.286 346.895 38.132C347.682 37.097 348.152 35.988 348.285 34.887C350.37 33.924 353.838 31.644 354.151 28.907ZM348.117 27.141C347.273 27.089 346.294 26.203 346.282 25.894C346.291 25.875 346.349 25.808 346.463 25.74C347.088 25.393 349.112 25.999 350.387 26.733C349.731 27.037 348.976 27.191 348.117 27.141ZM342.891 32.657C342.537 32.345 342.646 32.201 342.753 32.062C343.12 31.58 343.637 31.355 344.01 31.515C344.333 31.654 344.621 31.819 344.869 32.008C345.337 32.364 345.668 32.804 345.847 33.314C344.67 33.582 343.676 33.361 342.891 32.657Z" fill="#E06363"/>
<path d="M440.315 160.016C440.377 159.476 440.332 158.79 439.975 158.062C441.163 156.658 441.889 154.856 442.208 153.166C442.327 152.536 441.912 151.929 441.282 151.809C440.651 151.69 440.044 152.105 439.925 152.735C439.688 153.995 439.199 155.281 438.425 156.294C437.293 155.468 433.631 153.636 431.471 154.835C430.416 155.461 429.94 156.473 430.199 157.544C430.589 159.161 432.599 160.475 434.141 160.57C435.653 160.658 436.937 160.324 438.011 159.714C438.01 159.728 438.008 159.74 438.007 159.752C437.867 160.968 436.068 162.522 434.163 163.542C433.656 162.202 432.583 161.129 431.089 160.489C429.713 159.899 428.097 160.412 427.067 161.766C426.155 162.966 426.337 164.471 427.512 165.505C428.704 166.576 430.191 167.012 431.826 166.811C431.672 167.154 431.465 167.497 431.209 167.835C429.556 170.009 426.079 170.259 424.771 169.264C424.261 168.876 423.531 168.975 423.143 169.486C422.755 169.997 422.854 170.726 423.365 171.114C425.724 172.908 430.66 172.396 433.059 169.242C433.846 168.207 434.316 167.098 434.449 165.997C436.534 165.034 440.001 162.753 440.315 160.016ZM434.28 158.251C433.436 158.198 432.457 157.313 432.445 157.004C432.455 156.985 432.512 156.918 432.626 156.85C433.251 156.503 435.275 157.11 436.55 157.843C435.894 158.147 435.14 158.301 434.28 158.251ZM429.055 163.766C428.701 163.455 428.81 163.31 428.917 163.171C429.284 162.689 429.801 162.464 430.174 162.624C430.497 162.762 430.785 162.928 431.033 163.117C431.502 163.473 431.832 163.913 432.011 164.423C430.834 164.692 429.839 164.47 429.055 163.766Z" fill="#E06363"/>
<path d="M33.9401 94.8719C34.0021 94.3319 33.9571 93.6459 33.6001 92.9179C34.7881 91.5139 35.5141 89.7119 35.8331 88.0219C35.9521 87.3919 35.5371 86.7839 34.9071 86.6649C34.2761 86.5459 33.6691 86.9609 33.5501 87.5909C33.3131 88.8509 32.8241 90.1369 32.0501 91.1499C30.9181 90.3239 27.2561 88.4919 25.0961 89.6909C24.0411 90.3169 23.5651 91.3299 23.8241 92.3999C24.2141 94.0169 26.2241 95.3309 27.7661 95.4259C29.2781 95.5139 30.5621 95.1799 31.6361 94.5699C31.6351 94.5839 31.6331 94.5959 31.6321 94.6069C31.4921 95.8239 29.6931 97.3769 27.7881 98.3969C27.2811 97.0569 26.2081 95.9839 24.7141 95.3429C23.3381 94.7529 21.7221 95.2659 20.6921 96.6199C19.7801 97.8199 19.9621 99.3249 21.1371 100.359C22.3291 101.43 23.8161 101.866 25.4511 101.665C25.2971 102.008 25.0911 102.352 24.8341 102.689C23.1811 104.862 19.7041 105.113 18.3961 104.118C17.8861 103.73 17.1571 103.829 16.7681 104.34C16.3801 104.851 16.4791 105.58 16.9901 105.968C19.3491 107.762 24.2851 107.25 26.6841 104.096C27.4711 103.061 27.9411 101.952 28.0741 100.851C30.1591 99.8899 33.6261 97.6099 33.9401 94.8719ZM27.9061 93.1069C27.0621 93.0539 26.0831 92.1689 26.0711 91.8599C26.0811 91.8409 26.1381 91.7739 26.2521 91.7059C26.8771 91.3589 28.9011 91.9659 30.1761 92.6989C29.5191 93.0029 28.7651 93.1569 27.9061 93.1069ZM22.6801 98.6219C22.3261 98.3109 22.4361 98.1659 22.5421 98.0269C22.9091 97.5449 23.4261 97.3199 23.7991 97.4799C24.1221 97.6179 24.4101 97.7839 24.6591 97.9729C25.1271 98.3289 25.4581 98.7689 25.6371 99.2789C24.4591 99.5479 23.4641 99.3269 22.6801 98.6219Z" fill="#E06363"/>
<path d="M444.013 12.8035C443.49 12.6555 442.806 12.5895 442.029 12.8255C440.833 11.4275 439.171 10.4215 437.554 9.83551C436.951 9.61651 436.285 9.92951 436.066 10.5325C435.847 11.1365 436.16 11.8015 436.763 12.0205C437.969 12.4565 439.16 13.1455 440.036 14.0715C439.04 15.0565 436.644 18.3775 437.481 20.7015C437.929 21.8435 438.853 22.4755 439.951 22.3915C441.609 22.2655 443.229 20.4925 443.57 18.9855C443.899 17.5075 443.775 16.1855 443.345 15.0285C443.359 15.0315 443.37 15.0355 443.381 15.0385C444.559 15.3715 445.804 17.3965 446.505 19.4405C445.101 19.7265 443.87 20.6135 442.998 21.9845C442.195 23.2475 442.442 24.9255 443.613 26.1585C444.651 27.2515 446.166 27.3125 447.375 26.3195C448.624 25.3145 449.292 23.9165 449.356 22.2705C449.67 22.4775 449.976 22.7365 450.267 23.0435C452.147 25.0235 451.837 28.4955 450.645 29.6275C450.18 30.0695 450.161 30.8045 450.603 31.2695C451.045 31.7345 451.78 31.7535 452.245 31.3115C454.394 29.2705 454.68 24.3165 451.951 21.4425C451.056 20.4995 450.036 19.8575 448.971 19.5495C448.359 17.3405 446.664 13.5525 444.013 12.8035ZM441.303 18.4765C441.116 19.3005 440.085 20.1255 439.778 20.0875C439.761 20.0745 439.704 20.0075 439.655 19.8845C439.413 19.2125 440.336 17.3115 441.265 16.1705C441.458 16.8675 441.489 17.6365 441.303 18.4765ZM445.908 24.5195C445.544 24.8185 445.419 24.6875 445.298 24.5605C444.881 24.1215 444.742 23.5745 444.959 23.2315C445.147 22.9345 445.357 22.6775 445.583 22.4625C446.01 22.0575 446.497 21.8015 447.028 21.7065C447.107 22.9115 446.729 23.8575 445.908 24.5195Z" fill="#FFDC4F"/>
<path d="M145.493 137.375C146.03 137.462 146.717 137.448 147.461 137.125C148.809 138.376 150.576 139.184 152.25 139.581C152.874 139.729 153.5 139.342 153.648 138.718C153.796 138.093 153.409 137.468 152.785 137.32C151.537 137.025 150.275 136.478 149.299 135.659C150.176 134.566 152.174 130.992 151.076 128.779C150.5 127.696 149.51 127.175 148.428 127.384C146.795 127.699 145.39 129.647 145.224 131.183C145.067 132.689 145.342 133.988 145.901 135.088C145.887 135.086 145.875 135.084 145.864 135.083C144.655 134.887 143.186 133.019 142.255 131.069C143.617 130.624 144.738 129.601 145.446 128.138C146.098 126.791 145.66 125.152 144.355 124.062C143.198 123.096 141.687 123.208 140.6 124.335C139.475 125.477 138.971 126.942 139.097 128.585C138.762 128.415 138.428 128.193 138.103 127.922C136.008 126.171 135.917 122.687 136.971 121.425C137.382 120.933 137.317 120.2 136.824 119.789C136.331 119.378 135.599 119.444 135.188 119.936C133.288 122.21 133.573 127.165 136.613 129.705C137.611 130.539 138.697 131.059 139.791 131.243C140.654 133.368 142.773 136.936 145.493 137.375ZM147.533 131.428C147.624 130.588 148.554 129.65 148.863 129.653C148.881 129.663 148.946 129.724 149.009 129.841C149.327 130.481 148.628 132.476 147.837 133.716C147.563 133.045 147.444 132.284 147.533 131.428ZM142.264 125.955C142.591 125.615 142.73 125.732 142.865 125.844C143.33 126.232 143.531 126.759 143.354 127.125C143.201 127.442 143.023 127.721 142.822 127.961C142.445 128.413 141.99 128.722 141.473 128.878C141.257 127.689 141.524 126.706 142.264 125.955Z" fill="#FFDC4F"/>
<path d="M166.453 189.793C166.453 189.793 177.786 186.626 182.453 176.293L189.12 180.09C189.12 180.09 186.787 189.46 172.287 196.46L166.453 189.793Z" fill="#6FC4E8"/>
<path d="M326.297 282.115C326.297 282.115 332.777 272.293 329.525 261.431L337.048 259.926C337.048 259.926 341.43 268.531 335.072 283.323L326.297 282.115Z" fill="#6FC4E8"/>
<path d="M30.6119 45.1641C30.6119 45.1641 29.6519 56.8921 37.7259 64.8531L31.8529 69.7891C31.8529 69.7891 23.8739 64.3511 22.3359 48.3241L30.6119 45.1641Z" fill="#E06363"/>
<path d="M1.505 221.555C1.505 221.555 11.102 228.364 22.068 225.481L23.317 233.051C23.317 233.051 14.569 237.14 0 230.285L1.505 221.555Z" fill="#6FC4E8"/>
<path d="M315.562 214.316C315.562 214.316 318.36 225.746 328.537 230.745L324.527 237.285C324.527 237.285 315.237 234.65 308.711 219.93L315.562 214.316Z" fill="#FFDC4F"/>
<path d="M329.195 136.127C329.195 136.127 339.031 133.379 343.082 124.41L348.868 127.705C348.868 127.705 346.843 135.837 334.258 141.913L329.195 136.127Z" fill="#E06363"/>
<path d="M40.2249 6.244C40.2249 6.244 30.1709 8.03801 25.2799 16.577L19.8359 12.743C19.8359 12.743 22.6309 4.842 35.7389 0L40.2249 6.244Z" fill="#FFDC4F"/>
<path d="M301.562 267.45C301.562 267.45 309.471 265.24 312.727 258.031L317.379 260.68C317.379 260.68 315.751 267.218 305.634 272.102L301.562 267.45Z" fill="#E06363"/>
<path d="M149.853 158.746C149.853 158.746 155.106 164.542 162.636 164.243L162.362 169.335C162.362 169.335 156.098 170.734 147.625 164.196L149.853 158.746Z" fill="#FFDC4F"/>
<path d="M439.685 186.332C439.685 186.332 444.938 192.128 452.468 191.829L452.194 196.921C452.194 196.921 445.93 198.32 437.457 191.782L439.685 186.332Z" fill="#FFDC4F"/>
<path d="M330.91 45.5C330.91 45.5 332.424 53.174 339.031 56.8L336.171 61.022C336.171 61.022 330.082 58.992 326.191 49.022L330.91 45.5Z" fill="#FFDC4F"/>
<path d="M143.835 72.8183C143.835 72.8183 137.901 77.9143 137.999 85.4503L132.916 85.0403C132.916 85.0403 131.684 78.7413 138.446 70.4453L143.835 72.8183Z" fill="#FFDC4F"/>
<path d="M97.8945 27.3267C97.8945 27.3267 102.698 29.0077 102.18 33.2757C101.663 37.5437 104.12 43.8747 109.164 43.4897L110.716 38.5787C110.716 38.5787 105.026 39.6137 106.319 32.7587C107.612 25.9047 100.177 23.9727 100.177 23.9727L97.8945 27.3267Z" fill="#E06363"/>
<path d="M162.279 239.285C162.279 239.285 162.649 234.21 166.904 233.596C171.159 232.982 176.63 228.958 174.942 224.19L169.796 223.973C169.796 223.973 172.279 229.197 165.325 229.736C158.371 230.276 158.445 237.957 158.445 237.957L162.279 239.285Z" fill="#E06363"/>
<path d="M289.561 23.6011C289.561 23.6011 289.931 18.5261 294.186 17.9121C298.441 17.2981 303.912 13.2741 302.224 8.50606L297.078 8.28906C297.078 8.28906 299.561 13.5131 292.607 14.0521C285.653 14.5921 285.727 22.2731 285.727 22.2731L289.561 23.6011Z" fill="#FFDC4F"/>
<path d="M10.8094 156.896C10.8094 156.896 10.4144 151.823 14.5294 150.578C18.6444 149.333 23.4504 144.536 21.0674 140.074L15.9474 140.63C15.9474 140.63 19.1854 145.422 12.3904 146.998C5.5954 148.573 6.82041 156.157 6.82041 156.157L10.8094 156.896Z" fill="#FFDC4F"/>
<path d="M60.5126 67.7518C62.3749 67.7518 63.8846 66.2421 63.8846 64.3798C63.8846 62.5175 62.3749 61.0078 60.5126 61.0078C58.6503 61.0078 57.1406 62.5175 57.1406 64.3798C57.1406 66.2421 58.6503 67.7518 60.5126 67.7518Z" fill="#FFDC4F"/>
<path d="M416.54 16.578C416.54 14.716 415.031 13.207 413.169 13.207C411.307 13.207 409.797 14.716 409.797 16.578C409.797 18.44 411.307 19.949 413.169 19.949C415.03 19.949 416.54 18.44 416.54 16.578Z" fill="#FFDC4F"/>
<path d="M452.051 296.56C452.051 294.698 450.542 293.188 448.68 293.188C446.818 293.188 445.309 294.698 445.309 296.56C445.309 298.422 446.818 299.931 448.68 299.931C450.542 299.931 452.051 298.422 452.051 296.56Z" fill="#FFDC4F"/>
<path d="M48.8212 85.451C50.6835 85.451 52.1932 83.9413 52.1932 82.079C52.1932 80.2167 50.6835 78.707 48.8212 78.707C46.9589 78.707 45.4492 80.2167 45.4492 82.079C45.4492 83.9413 46.9589 85.451 48.8212 85.451Z" fill="#6FC4E8"/>
<path d="M36.4306 145.283C38.2929 145.283 39.8026 143.773 39.8026 141.911C39.8026 140.049 38.2929 138.539 36.4306 138.539C34.5683 138.539 33.0586 140.049 33.0586 141.911C33.0586 143.773 34.5683 145.283 36.4306 145.283Z" fill="#6FC4E8"/>
<path d="M387.293 156.809C387.293 154.947 385.784 153.438 383.922 153.438C382.06 153.438 380.551 154.947 380.551 156.809C380.551 158.671 382.06 160.181 383.922 160.181C385.783 160.181 387.293 158.671 387.293 156.809Z" fill="#6FC4E8"/>
<path d="M246.938 129.631C248.801 129.631 250.31 128.121 250.31 126.259C250.31 124.396 248.801 122.887 246.938 122.887C245.076 122.887 243.566 124.396 243.566 126.259C243.566 128.121 245.076 129.631 246.938 129.631Z" fill="#E06363"/>
<path d="M303.294 164.102C303.294 162.24 301.785 160.73 299.923 160.73C298.061 160.73 296.551 162.24 296.551 164.102C296.551 165.964 298.06 167.473 299.923 167.473C301.785 167.473 303.294 165.964 303.294 164.102Z" fill="#E06363"/>
<path d="M170.73 285.254C172.592 285.254 174.101 283.744 174.101 281.883C174.101 280.021 172.592 278.512 170.73 278.512C168.869 278.512 167.359 280.021 167.359 281.883C167.359 283.744 168.869 285.254 170.73 285.254Z" fill="#E06363"/>
<path d="M362.477 6.744C364.34 6.744 365.849 5.2343 365.849 3.37199C365.849 1.50969 364.34 0 362.477 0C360.615 0 359.105 1.50969 359.105 3.37199C359.105 5.2343 360.615 6.744 362.477 6.744Z" fill="#E06363"/>
<path d="M303.294 296.56C303.294 294.698 301.785 293.188 299.923 293.188C298.061 293.188 296.551 294.698 296.551 296.56C296.551 298.422 298.06 299.931 299.923 299.931C301.785 299.931 303.294 298.422 303.294 296.56Z" fill="#FFDC4F"/>
<path d="M8.98619 112.66C8.98619 110.798 7.47719 109.289 5.61419 109.289C3.75219 109.289 2.24219 110.798 2.24219 112.66C2.24219 114.522 3.75219 116.031 5.61419 116.031C7.47719 116.031 8.98619 114.522 8.98619 112.66Z" fill="#E06363"/>
</svg>
