<svg width="24" height="24" viewBox="0 0 24 24" fill="none" xmlns="http://www.w3.org/2000/svg">
<path d="M17.5424 8.70928C18.3139 8.70928 18.9393 8.08388 18.9393 7.3124C18.9393 6.54093 18.3139 5.91553 17.5424 5.91553C16.7709 5.91553 16.1455 6.54093 16.1455 7.3124C16.1455 8.08388 16.7709 8.70928 17.5424 8.70928Z" fill="white"/>
<path d="M19.5492 10.472C20.3207 10.472 20.9461 9.84657 20.9461 9.0751C20.9461 8.30362 20.3207 7.67822 19.5492 7.67822C18.7777 7.67822 18.1523 8.30362 18.1523 9.0751C18.1523 9.84657 18.7777 10.472 19.5492 10.472Z" fill="white"/>
<path d="M17.724 12.4163C18.4955 12.4163 19.1209 11.7909 19.1209 11.0194C19.1209 10.248 18.4955 9.62256 17.724 9.62256C16.9526 9.62256 16.3271 10.248 16.3271 11.0194C16.3271 11.7909 16.9526 12.4163 17.724 12.4163Z" fill="white"/>
<path d="M15.6596 10.5921C16.431 10.5921 17.0564 9.96669 17.0564 9.19521C17.0564 8.42374 16.431 7.79834 15.6596 7.79834C14.8881 7.79834 14.2627 8.42374 14.2627 9.19521C14.2627 9.96669 14.8881 10.5921 15.6596 10.5921Z" fill="white"/>
<path d="M6.43309 12.8964C8.44616 12.8964 10.0781 11.2645 10.0781 9.25145C10.0781 7.23837 8.44616 5.60645 6.43309 5.60645C4.42001 5.60645 2.78809 7.23837 2.78809 9.25145C2.78809 11.2645 4.42001 12.8964 6.43309 12.8964Z" fill="#2F2F2F"/>
<path d="M8.65328 8.53135H7.10453V6.9826C7.10453 6.92635 7.05953 6.88135 7.00141 6.88135H5.88016C5.82391 6.88135 5.77891 6.92635 5.77891 6.9826V8.53135H4.23016C4.17391 8.53135 4.12891 8.57635 4.12891 8.6326V9.75572C4.12891 9.81197 4.17391 9.85697 4.23016 9.85697H5.77891V11.4057C5.77891 11.462 5.82578 11.5088 5.88016 11.5088H7.00141C7.05766 11.5088 7.10453 11.462 7.10453 11.4057V9.85697H8.65328C8.70953 9.85697 8.75641 9.8101 8.75641 9.75572V8.6326C8.75641 8.57822 8.70953 8.53135 8.65328 8.53135Z" fill="white"/>
<path fill-rule="evenodd" clip-rule="evenodd" d="M9.6146 9.19498C9.6146 10.9481 8.19335 12.3694 6.4421 12.3694C4.68897 12.3694 3.2696 10.9481 3.2696 9.19498C3.2696 7.44186 4.68897 6.02061 6.4421 6.02061C8.19335 6.02061 9.6146 7.44186 9.6146 9.19498ZM6.44022 6.02061C4.6871 6.02061 3.26772 7.44186 3.26772 9.19498C3.26772 10.9481 4.6871 12.3694 6.44022 12.3694C8.19335 12.3694 9.61272 10.9481 9.61272 9.19498C9.6146 7.44186 8.19335 6.02061 6.44022 6.02061ZM17.559 6.31873C17.4366 6.31873 17.3154 6.34283 17.2024 6.38967C17.0893 6.4365 16.9866 6.50514 16.9 6.59167C16.8135 6.6782 16.7449 6.78093 16.698 6.89399C16.6512 7.00705 16.6271 7.12823 16.6271 7.25061C16.6271 7.37298 16.6512 7.49416 16.698 7.60722C16.7449 7.72028 16.8135 7.82301 16.9 7.90954C16.9866 7.99607 17.0893 8.06471 17.2024 8.11155C17.3154 8.15838 17.4366 8.18248 17.559 8.18248C17.8061 8.18248 18.0431 8.0843 18.2179 7.90954C18.3927 7.73478 18.4908 7.49775 18.4908 7.25061C18.4908 7.00346 18.3927 6.76643 18.2179 6.59167C18.0431 6.41691 17.8061 6.31873 17.559 6.31873ZM14.6827 9.19498C14.6827 9.31736 14.7068 9.43853 14.7537 9.55159C14.8005 9.66465 14.8691 9.76738 14.9557 9.85392C15.0422 9.94045 15.1449 10.0091 15.258 10.0559C15.371 10.1028 15.4922 10.1269 15.6146 10.1269C15.737 10.1269 15.8582 10.1028 15.9712 10.0559C16.0843 10.0091 16.187 9.94045 16.2735 9.85392C16.3601 9.76738 16.4287 9.66465 16.4755 9.55159C16.5224 9.43853 16.5465 9.31736 16.5465 9.19498C16.5465 8.94783 16.4483 8.71081 16.2735 8.53605C16.0988 8.36129 15.8617 8.26311 15.6146 8.26311C15.3674 8.26311 15.1304 8.36129 14.9557 8.53605C14.7809 8.71081 14.6827 8.94783 14.6827 9.19498V9.19498ZM17.559 12.0712C17.6813 12.0712 17.8025 12.0471 17.9156 12.0003C18.0286 11.9535 18.1314 11.8848 18.2179 11.7983C18.3044 11.7118 18.3731 11.609 18.4199 11.496C18.4667 11.3829 18.4908 11.2617 18.4908 11.1394C18.4908 11.017 18.4667 10.8958 18.4199 10.7827C18.3731 10.6697 18.3044 10.567 18.2179 10.4804C18.1314 10.3939 18.0286 10.3252 17.9156 10.2784C17.8025 10.2316 17.6813 10.2075 17.559 10.2075C17.3118 10.2075 17.0748 10.3057 16.9 10.4804C16.7253 10.6552 16.6271 10.8922 16.6271 11.1394C16.6271 11.3865 16.7253 11.6235 16.9 11.7983C17.0748 11.9731 17.3118 12.0712 17.559 12.0712ZM20.4352 9.19498C20.4352 8.94783 20.337 8.71081 20.1623 8.53605C19.9875 8.36129 19.7505 8.26311 19.5033 8.26311C19.2562 8.26311 19.0192 8.36129 18.8444 8.53605C18.6697 8.71081 18.5715 8.94783 18.5715 9.19498C18.5715 9.71061 18.9877 10.1269 19.5033 10.1269C19.7505 10.1269 19.9875 10.0287 20.1623 9.85392C20.337 9.67916 20.4352 9.44213 20.4352 9.19498V9.19498ZM6.44022 6.02061C4.6871 6.02061 3.26772 7.44186 3.26772 9.19498C3.26772 10.9481 4.6871 12.3694 6.44022 12.3694C8.19335 12.3694 9.61272 10.9481 9.61272 9.19498C9.6146 7.44186 8.19335 6.02061 6.44022 6.02061ZM23.7502 16.1006L23.0658 8.68686C22.8071 5.87248 20.4427 3.66748 17.5608 3.66748H6.4421C3.56022 3.66748 1.19397 5.87248 0.935222 8.68686L0.248972 16.1006C0.0895972 18.0131 0.286472 19.6331 1.79772 20.1881C2.91897 20.5987 4.07397 20.1881 5.73147 18.4781L8.90585 15.0169H15.0896L18.264 18.4781C19.9215 20.1881 21.0783 20.5987 22.1977 20.1881C23.7108 19.6312 23.9096 18.0131 23.7502 16.1006V16.1006Z" fill="#757F3F"/>
</svg>
