<svg width="24" height="24" viewBox="0 0 24 24" fill="none" xmlns="http://www.w3.org/2000/svg">
<rect width="24" height="24" rx="1" fill="#FF4C2B"/>
<path d="M7.5 12.308L7.5 6.84619C7.5 6.29391 7.05228 5.84619 6.5 5.84619L6 5.84619M7.5 12.308L7.5 17.8464C7.5 18.3987 7.05228 18.8464 6.5 18.8464L6 18.8464M7.5 12.308L15.7521 5.99021C15.9433 5.84381 16.5909 6.29763 16.5909 6.53846V6.53846C16.5909 7.5 17.0455 8.46153 17.0455 8.46153M7.5 12.308L13.7762 12.308C15.5818 12.308 17.0455 13.7716 17.0455 15.5772V15.5772C17.0455 17.3827 15.5818 18.8464 13.7762 18.8464L11.5909 18.8464" stroke="white" stroke-width="2" stroke-linecap="round"/>
</svg>
