<svg width="24" height="24" viewBox="0 0 24 24" fill="none" xmlns="http://www.w3.org/2000/svg">
<path d="M11.932 8.98001L10.278 10.464C10.4951 11.2129 10.8006 11.9333 11.188 12.61C11.5912 13.282 12.0762 13.9015 12.632 14.454L14.774 13.794C15.974 13.424 17.284 13.804 18.082 14.754L19.302 16.206C19.7959 16.7889 20.0435 17.5412 19.9924 18.3035C19.9412 19.0659 19.5953 19.7783 19.028 20.29C17.038 22.106 13.974 22.72 11.68 20.918C9.66381 19.3305 7.95792 17.3846 6.64796 15.178C5.33512 12.9818 4.45652 10.5538 4.05996 8.02601C3.61996 5.18201 5.70196 2.90601 8.29796 2.13001C9.84596 1.66601 11.498 2.46201 12.066 3.94601L12.736 5.69601C13.176 6.84801 12.86 8.14601 11.932 8.97801V8.98001Z" fill="#F2F2F2"/>
</svg>
