<svg width="24" height="24" viewBox="0 0 24 24" fill="none" xmlns="http://www.w3.org/2000/svg">
<path d="M14.3587 4.64986C14.6994 4.6498 15.0309 4.76075 15.3029 4.9659C15.5749 5.17106 15.7726 5.45926 15.8662 5.78686C16.4662 7.52911 17.5537 10.0086 18.3615 11.1291C18.5088 10.7295 18.6068 10.3135 18.6532 9.89011C18.6682 9.74911 18.7672 8.83261 18.9052 8.42311C19.071 7.92961 19.4137 7.50511 19.9282 7.33861C20.7659 7.06861 21.6757 7.56361 21.9607 8.44636C21.987 8.52736 22.0072 8.60911 22.0207 8.69086C22.1182 9.11086 22.0507 9.49561 22.0102 9.74986C21.9062 10.4041 21.8164 11.0605 21.741 11.7186C21.6258 12.9132 21.6573 14.1174 21.8347 15.3044C22.0597 16.3641 21.999 17.4884 21.9397 17.9181C21.2947 22.6506 16.0545 23.0031 14.5807 22.3056C13.5765 21.9794 12.5122 21.2031 11.0482 19.7046C9.33595 17.9534 7.7722 16.0259 6.90145 14.7224C6.703 14.4598 6.59325 14.1409 6.58808 13.8119C6.58292 13.4828 6.68261 13.1606 6.87273 12.892C7.06285 12.6234 7.33352 12.4222 7.64557 12.3176C7.95762 12.2131 8.29486 12.2105 8.60845 12.3104C8.3257 11.7591 8.09845 11.2776 7.9207 10.7451C7.80261 10.403 7.80793 10.0304 7.93575 9.69176C8.06357 9.35317 8.30583 9.06996 8.62054 8.89123C8.93525 8.71251 9.30257 8.64952 9.65884 8.7132C10.0151 8.77687 10.3379 8.96319 10.5712 9.23986C10.4812 9.03961 9.94495 7.71586 9.8512 7.09936C9.52638 6.50163 9.4523 5.79934 9.64528 5.147C9.83825 4.49465 10.2825 3.94568 10.8802 3.62086C11.4779 3.29604 12.1802 3.22196 12.8326 3.41494C13.4849 3.60791 14.0339 4.05213 14.3587 4.64986V4.64986Z" fill="#E4AB94"/>
<path d="M14.3587 4.64986C14.6994 4.6498 15.0309 4.76075 15.3029 4.9659C15.5749 5.17106 15.7726 5.45926 15.8662 5.78686C16.4662 7.52911 17.5537 10.0086 18.3615 11.1291C18.5088 10.7295 18.6068 10.3135 18.6532 9.89011C18.6682 9.74911 18.7672 8.83261 18.9052 8.42311C19.071 7.92961 19.4137 7.50511 19.9282 7.33861C20.7659 7.06861 21.6757 7.56361 21.9607 8.44636C21.987 8.52736 22.0072 8.60911 22.0207 8.69086C22.1182 9.11086 22.0507 9.49561 22.0102 9.74986C21.9062 10.4041 21.8164 11.0605 21.741 11.7186C21.6258 12.9132 21.6573 14.1174 21.8347 15.3044C22.0597 16.3641 21.999 17.4884 21.9397 17.9181C21.2947 22.6506 16.0545 23.0031 14.5807 22.3056C13.5765 21.9794 12.5122 21.2031 11.0482 19.7046C9.33595 17.9534 7.7722 16.0259 6.90145 14.7224C6.703 14.4598 6.59325 14.1409 6.58808 13.8119C6.58292 13.4828 6.68261 13.1606 6.87273 12.892C7.06285 12.6234 7.33352 12.4222 7.64557 12.3176C7.95762 12.2131 8.29486 12.2105 8.60845 12.3104C8.3257 11.7591 8.09845 11.2776 7.9207 10.7451C7.80261 10.403 7.80793 10.0304 7.93575 9.69176C8.06357 9.35317 8.30583 9.06996 8.62054 8.89123C8.93525 8.71251 9.30257 8.64952 9.65884 8.7132C10.0151 8.77687 10.3379 8.96319 10.5712 9.23986C10.4812 9.03961 9.94495 7.71586 9.8512 7.09936C9.52638 6.50163 9.4523 5.79934 9.64528 5.147C9.83825 4.49465 10.2825 3.94568 10.8802 3.62086C11.4779 3.29604 12.1802 3.22196 12.8326 3.41494C13.4849 3.60791 14.0339 4.05213 14.3587 4.64986V4.64986Z" fill="url(#paint0_radial_907_568)"/>
<path d="M14.3587 4.64986C14.6994 4.6498 15.0309 4.76075 15.3029 4.9659C15.5749 5.17106 15.7726 5.45926 15.8662 5.78686C16.4662 7.52911 17.5537 10.0086 18.3615 11.1291C18.5088 10.7295 18.6068 10.3135 18.6532 9.89011C18.6682 9.74911 18.7672 8.83261 18.9052 8.42311C19.071 7.92961 19.4137 7.50511 19.9282 7.33861C20.7659 7.06861 21.6757 7.56361 21.9607 8.44636C21.987 8.52736 22.0072 8.60911 22.0207 8.69086C22.1182 9.11086 22.0507 9.49561 22.0102 9.74986C21.9062 10.4041 21.8164 11.0605 21.741 11.7186C21.6258 12.9132 21.6573 14.1174 21.8347 15.3044C22.0597 16.3641 21.999 17.4884 21.9397 17.9181C21.2947 22.6506 16.0545 23.0031 14.5807 22.3056C13.5765 21.9794 12.5122 21.2031 11.0482 19.7046C9.33595 17.9534 7.7722 16.0259 6.90145 14.7224C6.703 14.4598 6.59325 14.1409 6.58808 13.8119C6.58292 13.4828 6.68261 13.1606 6.87273 12.892C7.06285 12.6234 7.33352 12.4222 7.64557 12.3176C7.95762 12.2131 8.29486 12.2105 8.60845 12.3104C8.3257 11.7591 8.09845 11.2776 7.9207 10.7451C7.80261 10.403 7.80793 10.0304 7.93575 9.69176C8.06357 9.35317 8.30583 9.06996 8.62054 8.89123C8.93525 8.71251 9.30257 8.64952 9.65884 8.7132C10.0151 8.77687 10.3379 8.96319 10.5712 9.23986C10.4812 9.03961 9.94495 7.71586 9.8512 7.09936C9.52638 6.50163 9.4523 5.79934 9.64528 5.147C9.83825 4.49465 10.2825 3.94568 10.8802 3.62086C11.4779 3.29604 12.1802 3.22196 12.8326 3.41494C13.4849 3.60791 14.0339 4.05213 14.3587 4.64986V4.64986Z" fill="url(#paint1_linear_907_568)"/>
<path d="M12.792 6.19698C12.8137 6.38298 12.8685 6.62148 12.981 6.91398C13.0297 7.04148 13.089 7.20423 13.1587 7.39623C13.473 8.31648 14.0632 9.87723 14.8462 11.3037C15.141 11.8407 15.6787 12.2187 16.2915 12.1895C17.0985 12.152 18.0255 11.8857 18.381 11.0915L18.3787 11.084C18.3731 11.099 18.3674 11.114 18.3615 11.129C17.5537 10.0085 16.4662 7.52898 15.8662 5.78673C15.7627 5.42515 15.5325 5.11286 15.2178 4.90686C14.9031 4.70087 14.5248 4.6149 14.152 4.66466C13.7792 4.71441 13.4367 4.89656 13.187 5.17787C12.9373 5.45918 12.7971 5.82089 12.792 6.19698Z" fill="url(#paint2_radial_907_568)"/>
<path d="M12.792 6.19698C12.8137 6.38298 12.8685 6.62148 12.981 6.91398C13.0297 7.04148 13.089 7.20423 13.1587 7.39623C13.473 8.31648 14.0632 9.87723 14.8462 11.3037C15.141 11.8407 15.6787 12.2187 16.2915 12.1895C17.0985 12.152 18.0255 11.8857 18.381 11.0915L18.3787 11.084C18.3731 11.099 18.3674 11.114 18.3615 11.129C17.5537 10.0085 16.4662 7.52898 15.8662 5.78673C15.7627 5.42515 15.5325 5.11286 15.2178 4.90686C14.9031 4.70087 14.5248 4.6149 14.152 4.66466C13.7792 4.71441 13.4367 4.89656 13.187 5.17787C12.9373 5.45918 12.7971 5.82089 12.792 6.19698Z" fill="url(#paint3_radial_907_568)"/>
<path d="M12.792 6.19698C12.8137 6.38298 12.8685 6.62148 12.981 6.91398C13.0297 7.04148 13.089 7.20423 13.1587 7.39623C13.473 8.31648 14.0632 9.87723 14.8462 11.3037C15.141 11.8407 15.6787 12.2187 16.2915 12.1895C17.0985 12.152 18.0255 11.8857 18.381 11.0915L18.3787 11.084C18.3731 11.099 18.3674 11.114 18.3615 11.129C17.5537 10.0085 16.4662 7.52898 15.8662 5.78673C15.7627 5.42515 15.5325 5.11286 15.2178 4.90686C14.9031 4.70087 14.5248 4.6149 14.152 4.66466C13.7792 4.71441 13.4367 4.89656 13.187 5.17787C12.9373 5.45918 12.7971 5.82089 12.792 6.19698Z" fill="url(#paint4_linear_907_568)"/>
<path d="M12.792 6.19698C12.8137 6.38298 12.8685 6.62148 12.981 6.91398C13.0297 7.04148 13.089 7.20423 13.1587 7.39623C13.473 8.31648 14.0632 9.87723 14.8462 11.3037C15.141 11.8407 15.6787 12.2187 16.2915 12.1895C17.0985 12.152 18.0255 11.8857 18.381 11.0915L18.3787 11.084C18.3731 11.099 18.3674 11.114 18.3615 11.129C17.5537 10.0085 16.4662 7.52898 15.8662 5.78673C15.7627 5.42515 15.5325 5.11286 15.2178 4.90686C14.9031 4.70087 14.5248 4.6149 14.152 4.66466C13.7792 4.71441 13.4367 4.89656 13.187 5.17787C12.9373 5.45918 12.7971 5.82089 12.792 6.19698Z" fill="url(#paint5_radial_907_568)"/>
<path d="M12.792 6.19698C12.8137 6.38298 12.8685 6.62148 12.981 6.91398C13.0297 7.04148 13.089 7.20423 13.1587 7.39623C13.473 8.31648 14.0632 9.87723 14.8462 11.3037C15.141 11.8407 15.6787 12.2187 16.2915 12.1895C17.0985 12.152 18.0255 11.8857 18.381 11.0915L18.3787 11.084C18.3731 11.099 18.3674 11.114 18.3615 11.129C17.5537 10.0085 16.4662 7.52898 15.8662 5.78673C15.7627 5.42515 15.5325 5.11286 15.2178 4.90686C14.9031 4.70087 14.5248 4.6149 14.152 4.66466C13.7792 4.71441 13.4367 4.89656 13.187 5.17787C12.9373 5.45918 12.7971 5.82089 12.792 6.19698Z" fill="url(#paint6_radial_907_568)"/>
<path d="M7.92356 10.7451C7.80624 10.4049 7.81094 10.0345 7.93685 9.69732C8.06276 9.36019 8.30204 9.07736 8.61365 8.89735C8.92527 8.71733 9.28981 8.65133 9.64476 8.71068C9.99971 8.77002 10.323 8.95101 10.5591 9.2226C11.3346 10.7871 12.2908 12.6118 13.0161 13.6753C12.0936 14.9293 11.8716 15.5624 11.6811 16.1016C11.0946 15.2849 9.86906 13.6229 9.43106 13.0664C9.19556 12.7679 8.90906 12.3868 8.61356 12.3103C8.33844 11.8097 8.10757 11.2859 7.92356 10.7451V10.7451Z" fill="url(#paint7_radial_907_568)"/>
<path d="M7.92356 10.7451C7.80624 10.4049 7.81094 10.0345 7.93685 9.69732C8.06276 9.36019 8.30204 9.07736 8.61365 8.89735C8.92527 8.71733 9.28981 8.65133 9.64476 8.71068C9.99971 8.77002 10.323 8.95101 10.5591 9.2226C11.3346 10.7871 12.2908 12.6118 13.0161 13.6753C12.0936 14.9293 11.8716 15.5624 11.6811 16.1016C11.0946 15.2849 9.86906 13.6229 9.43106 13.0664C9.19556 12.7679 8.90906 12.3868 8.61356 12.3103C8.33844 11.8097 8.10757 11.2859 7.92356 10.7451V10.7451Z" fill="url(#paint8_radial_907_568)"/>
<path d="M7.92356 10.7451C7.80624 10.4049 7.81094 10.0345 7.93685 9.69732C8.06276 9.36019 8.30204 9.07736 8.61365 8.89735C8.92527 8.71733 9.28981 8.65133 9.64476 8.71068C9.99971 8.77002 10.323 8.95101 10.5591 9.2226C11.3346 10.7871 12.2908 12.6118 13.0161 13.6753C12.0936 14.9293 11.8716 15.5624 11.6811 16.1016C11.0946 15.2849 9.86906 13.6229 9.43106 13.0664C9.19556 12.7679 8.90906 12.3868 8.61356 12.3103C8.33844 11.8097 8.10757 11.2859 7.92356 10.7451V10.7451Z" fill="url(#paint9_radial_907_568)"/>
<path d="M7.92356 10.7451C7.80624 10.4049 7.81094 10.0345 7.93685 9.69732C8.06276 9.36019 8.30204 9.07736 8.61365 8.89735C8.92527 8.71733 9.28981 8.65133 9.64476 8.71068C9.99971 8.77002 10.323 8.95101 10.5591 9.2226C11.3346 10.7871 12.2908 12.6118 13.0161 13.6753C12.0936 14.9293 11.8716 15.5624 11.6811 16.1016C11.0946 15.2849 9.86906 13.6229 9.43106 13.0664C9.19556 12.7679 8.90906 12.3868 8.61356 12.3103C8.33844 11.8097 8.10757 11.2859 7.92356 10.7451V10.7451Z" fill="url(#paint10_linear_907_568)"/>
<path d="M7.92356 10.7451C7.80624 10.4049 7.81094 10.0345 7.93685 9.69732C8.06276 9.36019 8.30204 9.07736 8.61365 8.89735C8.92527 8.71733 9.28981 8.65133 9.64476 8.71068C9.99971 8.77002 10.323 8.95101 10.5591 9.2226C11.3346 10.7871 12.2908 12.6118 13.0161 13.6753C12.0936 14.9293 11.8716 15.5624 11.6811 16.1016C11.0946 15.2849 9.86906 13.6229 9.43106 13.0664C9.19556 12.7679 8.90906 12.3868 8.61356 12.3103C8.33844 11.8097 8.10757 11.2859 7.92356 10.7451V10.7451Z" fill="url(#paint11_radial_907_568)"/>
<g filter="url(#filter0_f_907_568)">
<path d="M12.1326 14.6248C10.8569 12.5143 10.0356 10.9873 9.57514 10.2028C9.51938 10.1088 9.5013 9.99707 9.52453 9.89021C9.54777 9.78335 9.6106 9.68925 9.70039 9.62684C9.74773 9.59476 9.80118 9.57278 9.85739 9.56227C9.9136 9.55176 9.97138 9.55294 10.0271 9.56575C10.0828 9.57856 10.1353 9.60271 10.1813 9.63671C10.2273 9.6707 10.2658 9.71381 10.2944 9.76333L11.3211 11.5461L12.5856 13.8396C12.4454 14.2146 12.2811 14.5071 12.1326 14.6248Z" fill="#F1BD9E"/>
</g>
<path d="M18.3584 11.1256L18.3614 11.1293C18.5039 10.7603 18.6082 10.2968 18.6532 9.89033L18.6547 9.87683C18.6742 9.69833 18.7717 8.82158 18.9052 8.42333C19.0709 7.92983 19.4137 7.50533 19.9282 7.33883C20.7659 7.06883 21.6757 7.56383 21.9607 8.44658C21.9869 8.52758 22.0072 8.61008 22.0207 8.69108C22.1152 9.09458 22.0559 9.46658 22.0154 9.72083L22.0109 9.75008C21.9067 10.4043 21.8167 11.0607 21.7409 11.7188C21.6704 12.3938 21.6262 13.4641 21.7559 14.6941C20.0534 15.0218 19.0079 13.9456 18.6547 13.3246C18.2729 12.6526 18.1942 11.3761 18.3584 11.1256V11.1256Z" fill="url(#paint12_radial_907_568)"/>
<path d="M18.3584 11.1256L18.3614 11.1293C18.5039 10.7603 18.6082 10.2968 18.6532 9.89033L18.6547 9.87683C18.6742 9.69833 18.7717 8.82158 18.9052 8.42333C19.0709 7.92983 19.4137 7.50533 19.9282 7.33883C20.7659 7.06883 21.6757 7.56383 21.9607 8.44658C21.9869 8.52758 22.0072 8.61008 22.0207 8.69108C22.1152 9.09458 22.0559 9.46658 22.0154 9.72083L22.0109 9.75008C21.9067 10.4043 21.8167 11.0607 21.7409 11.7188C21.6704 12.3938 21.6262 13.4641 21.7559 14.6941C20.0534 15.0218 19.0079 13.9456 18.6547 13.3246C18.2729 12.6526 18.1942 11.3761 18.3584 11.1256V11.1256Z" fill="url(#paint13_radial_907_568)"/>
<path d="M18.3584 11.1256L18.3614 11.1293C18.5039 10.7603 18.6082 10.2968 18.6532 9.89033L18.6547 9.87683C18.6742 9.69833 18.7717 8.82158 18.9052 8.42333C19.0709 7.92983 19.4137 7.50533 19.9282 7.33883C20.7659 7.06883 21.6757 7.56383 21.9607 8.44658C21.9869 8.52758 22.0072 8.61008 22.0207 8.69108C22.1152 9.09458 22.0559 9.46658 22.0154 9.72083L22.0109 9.75008C21.9067 10.4043 21.8167 11.0607 21.7409 11.7188C21.6704 12.3938 21.6262 13.4641 21.7559 14.6941C20.0534 15.0218 19.0079 13.9456 18.6547 13.3246C18.2729 12.6526 18.1942 11.3761 18.3584 11.1256V11.1256Z" fill="url(#paint14_radial_907_568)"/>
<g filter="url(#filter1_f_907_568)">
<path d="M21.5344 9.21002C21.8124 9.05119 21.8535 8.59996 21.6263 8.20218C21.399 7.80441 20.9894 7.6107 20.7114 7.76954C20.4334 7.92837 20.3922 8.37959 20.6195 8.77737C20.8468 9.17515 21.2564 9.36885 21.5344 9.21002Z" fill="url(#paint15_radial_907_568)"/>
</g>
<g filter="url(#filter2_f_907_568)">
<path d="M21.1227 14.6129C20.4164 14.4535 19.78 14.0713 19.3074 13.5228C18.8348 12.9743 18.5509 12.2885 18.4977 11.5664C18.1459 11.7224 17.7477 12.9614 18.0177 13.7932C18.5442 15.4207 20.2557 15.9104 20.7244 15.9254L21.1227 14.6129Z" fill="#ECB59A"/>
</g>
<g filter="url(#filter3_f_907_568)">
<path d="M18.6336 12.7021C19.0131 13.2714 20.3593 13.9186 21.1873 14.0971C21.5308 15.0121 22.1016 19.2069 19.5703 20.8711C20.1591 19.8406 20.5716 16.0344 18.6328 12.7021H18.6336Z" fill="url(#paint16_radial_907_568)"/>
</g>
<path d="M10.4952 9.0607C11.054 10.2615 11.7485 11.7562 12.6192 13.047C12.7745 13.278 13.0542 13.395 13.3122 13.2907C13.9126 13.0397 14.4405 12.642 14.8475 12.1342C15.026 11.9115 15.02 11.6017 14.8812 11.3527C14.2497 10.224 13.349 8.2282 12.782 6.1957C12.6216 5.86019 12.346 5.59349 12.0054 5.44426C11.6647 5.29503 11.2818 5.27322 10.9265 5.38279C10.5711 5.49236 10.267 5.72602 10.0695 6.04116C9.87211 6.35629 9.79453 6.73189 9.85096 7.09945C9.92896 7.61545 10.3182 8.6272 10.4952 9.0607V9.0607Z" fill="url(#paint17_radial_907_568)"/>
<path d="M10.4952 9.0607C11.054 10.2615 11.7485 11.7562 12.6192 13.047C12.7745 13.278 13.0542 13.395 13.3122 13.2907C13.9126 13.0397 14.4405 12.642 14.8475 12.1342C15.026 11.9115 15.02 11.6017 14.8812 11.3527C14.2497 10.224 13.349 8.2282 12.782 6.1957C12.6216 5.86019 12.346 5.59349 12.0054 5.44426C11.6647 5.29503 11.2818 5.27322 10.9265 5.38279C10.5711 5.49236 10.267 5.72602 10.0695 6.04116C9.87211 6.35629 9.79453 6.73189 9.85096 7.09945C9.92896 7.61545 10.3182 8.6272 10.4952 9.0607V9.0607Z" fill="url(#paint18_radial_907_568)"/>
<path d="M10.4952 9.0607C11.054 10.2615 11.7485 11.7562 12.6192 13.047C12.7745 13.278 13.0542 13.395 13.3122 13.2907C13.9126 13.0397 14.4405 12.642 14.8475 12.1342C15.026 11.9115 15.02 11.6017 14.8812 11.3527C14.2497 10.224 13.349 8.2282 12.782 6.1957C12.6216 5.86019 12.346 5.59349 12.0054 5.44426C11.6647 5.29503 11.2818 5.27322 10.9265 5.38279C10.5711 5.49236 10.267 5.72602 10.0695 6.04116C9.87211 6.35629 9.79453 6.73189 9.85096 7.09945C9.92896 7.61545 10.3182 8.6272 10.4952 9.0607V9.0607Z" fill="url(#paint19_linear_907_568)"/>
<path d="M10.4952 9.0607C11.054 10.2615 11.7485 11.7562 12.6192 13.047C12.7745 13.278 13.0542 13.395 13.3122 13.2907C13.9126 13.0397 14.4405 12.642 14.8475 12.1342C15.026 11.9115 15.02 11.6017 14.8812 11.3527C14.2497 10.224 13.349 8.2282 12.782 6.1957C12.6216 5.86019 12.346 5.59349 12.0054 5.44426C11.6647 5.29503 11.2818 5.27322 10.9265 5.38279C10.5711 5.49236 10.267 5.72602 10.0695 6.04116C9.87211 6.35629 9.79453 6.73189 9.85096 7.09945C9.92896 7.61545 10.3182 8.6272 10.4952 9.0607V9.0607Z" fill="url(#paint20_radial_907_568)"/>
<path d="M8.60845 12.3102C8.29486 12.2104 7.95762 12.2129 7.64557 12.3175C7.33352 12.4221 7.06285 12.6232 6.87273 12.8919C6.68261 13.1605 6.58292 13.4827 6.58808 13.8117C6.59325 14.1408 6.703 14.4597 6.90145 14.7222C7.65445 15.8495 8.92645 17.444 10.3635 18.9875C12.147 18.152 11.988 16.4525 11.6835 16.0917C11.6782 16.1082 10.1655 13.9992 9.43045 13.0662L9.3937 13.0197C9.16645 12.7295 8.8942 12.3822 8.6137 12.3102C8.50495 12.1115 8.5042 12.1062 8.60845 12.3102Z" fill="url(#paint21_radial_907_568)"/>
<path d="M8.60845 12.3102C8.29486 12.2104 7.95762 12.2129 7.64557 12.3175C7.33352 12.4221 7.06285 12.6232 6.87273 12.8919C6.68261 13.1605 6.58292 13.4827 6.58808 13.8117C6.59325 14.1408 6.703 14.4597 6.90145 14.7222C7.65445 15.8495 8.92645 17.444 10.3635 18.9875C12.147 18.152 11.988 16.4525 11.6835 16.0917C11.6782 16.1082 10.1655 13.9992 9.43045 13.0662L9.3937 13.0197C9.16645 12.7295 8.8942 12.3822 8.6137 12.3102C8.50495 12.1115 8.5042 12.1062 8.60845 12.3102Z" fill="url(#paint22_radial_907_568)"/>
<g filter="url(#filter4_f_907_568)">
<path d="M10.8861 16.9366C10.8646 17.0321 10.8813 17.1323 10.9327 17.2157C10.9842 17.2991 11.0661 17.359 11.1612 17.3827C11.2562 17.4064 11.3568 17.392 11.4413 17.3426C11.5259 17.2931 11.5877 17.2125 11.6136 17.1181L10.8861 16.9366ZM17.1816 12.1043C17.232 12.1027 17.2815 12.091 17.3273 12.0699C17.3731 12.0487 17.4141 12.0186 17.4479 11.9812C17.4818 11.9438 17.5077 11.9 17.5242 11.8524C17.5408 11.8047 17.5475 11.7543 17.5441 11.704C17.5406 11.6537 17.5271 11.6046 17.5043 11.5596C17.4814 11.5147 17.4498 11.4748 17.4112 11.4424C17.3726 11.41 17.3278 11.3856 17.2796 11.3709C17.2314 11.3561 17.1807 11.3513 17.1306 11.3566L17.1816 12.1043ZM11.6136 17.1181C11.8319 16.2443 12.4311 15.0353 13.3836 14.0206C14.3316 13.0081 15.6081 12.2131 17.1816 12.1043L17.1306 11.3566C15.3194 11.4811 13.8771 12.3968 12.8361 13.5068C11.7989 14.6131 11.1366 15.9353 10.8861 16.9366L11.6136 17.1181V17.1181Z" fill="#D79D85"/>
</g>
<g filter="url(#filter5_f_907_568)">
<path d="M14.8594 5.54248C15.2569 7.25398 16.7456 10.1017 17.6126 11.4375" stroke="#FFCFAA" stroke-linecap="round"/>
</g>
<g filter="url(#filter6_f_907_568)">
<path d="M15.8545 7.82861C16.1125 8.43011 16.732 10.0104 17.6125 11.2854" stroke="url(#paint23_linear_907_568)" stroke-width="0.7" stroke-linecap="round"/>
</g>
<g filter="url(#filter7_i_907_568)">
<path d="M15.6094 1.97168C16.9279 2.06543 19.0901 3.17018 19.0196 5.99393" stroke="#1B99E7" stroke-width="0.9" stroke-linecap="round"/>
<path d="M15.6094 1.97168C16.9279 2.06543 19.0901 3.17018 19.0196 5.99393" stroke="url(#paint24_radial_907_568)" stroke-width="0.9" stroke-linecap="round"/>
</g>
<g filter="url(#filter8_i_907_568)">
<path d="M13.9795 3.15527C15.292 3.19952 17.7415 4.33577 17.6537 7.37102" stroke="#1B99E7" stroke-width="0.9" stroke-linecap="round"/>
<path d="M13.9795 3.15527C15.292 3.19952 17.7415 4.33577 17.6537 7.37102" stroke="url(#paint25_radial_907_568)" stroke-width="0.9" stroke-linecap="round"/>
</g>
<path d="M3.28456 12.146C3.13456 13.9985 4.17781 16.061 6.79156 16.4937" stroke="url(#paint26_linear_907_568)" stroke-width="0.9" stroke-linecap="round"/>
<path d="M3.28456 12.146C3.13456 13.9985 4.17781 16.061 6.79156 16.4937" stroke="url(#paint27_radial_907_568)" stroke-width="0.9" stroke-linecap="round"/>
<path d="M1.85167 13.5474C1.67542 15.3984 2.90017 17.2854 5.19667 17.5959" stroke="url(#paint28_linear_907_568)" stroke-width="0.9" stroke-linecap="round"/>
<path d="M1.85167 13.5474C1.67542 15.3984 2.90017 17.2854 5.19667 17.5959" stroke="url(#paint29_radial_907_568)" stroke-width="0.9" stroke-linecap="round"/>
<g filter="url(#filter9_f_907_568)">
<path d="M11.0544 17.1697C10.1206 16.1364 9.2409 15.0555 8.41893 13.9312C8.34089 13.8215 8.30824 13.6859 8.32781 13.5527C8.34738 13.4195 8.41764 13.299 8.52393 13.2164C8.63575 13.1273 8.77829 13.0862 8.92039 13.1019C9.06248 13.1177 9.19256 13.189 9.28218 13.3004L11.1602 15.6352C11.1692 16.3102 11.0934 16.9402 11.0544 17.1697Z" fill="#F1BD9E"/>
</g>
<g filter="url(#filter10_f_907_568)">
<path d="M12 6.36279C12.2423 7.20654 13.32 10.3865 14.4608 12.2105" stroke="#EAB99F" stroke-linecap="round"/>
</g>
<defs>
<filter id="filter0_f_907_568" x="8.76465" y="8.80518" width="4.57129" height="6.56982" filterUnits="userSpaceOnUse" color-interpolation-filters="sRGB">
<feFlood flood-opacity="0" result="BackgroundImageFix"/>
<feBlend mode="normal" in="SourceGraphic" in2="BackgroundImageFix" result="shape"/>
<feGaussianBlur stdDeviation="0.375" result="effect1_foregroundBlur_907_568"/>
</filter>
<filter id="filter1_f_907_568" x="19.9727" y="7.21387" width="2.30078" height="2.55176" filterUnits="userSpaceOnUse" color-interpolation-filters="sRGB">
<feFlood flood-opacity="0" result="BackgroundImageFix"/>
<feBlend mode="normal" in="SourceGraphic" in2="BackgroundImageFix" result="shape"/>
<feGaussianBlur stdDeviation="0.25" result="effect1_foregroundBlur_907_568"/>
</filter>
<filter id="filter2_f_907_568" x="16.9287" y="10.5664" width="5.19434" height="6.35889" filterUnits="userSpaceOnUse" color-interpolation-filters="sRGB">
<feFlood flood-opacity="0" result="BackgroundImageFix"/>
<feBlend mode="normal" in="SourceGraphic" in2="BackgroundImageFix" result="shape"/>
<feGaussianBlur stdDeviation="0.5" result="effect1_foregroundBlur_907_568"/>
</filter>
<filter id="filter3_f_907_568" x="17.1328" y="11.2021" width="5.8623" height="11.1689" filterUnits="userSpaceOnUse" color-interpolation-filters="sRGB">
<feFlood flood-opacity="0" result="BackgroundImageFix"/>
<feBlend mode="normal" in="SourceGraphic" in2="BackgroundImageFix" result="shape"/>
<feGaussianBlur stdDeviation="0.75" result="effect1_foregroundBlur_907_568"/>
</filter>
<filter id="filter4_f_907_568" x="9.37695" y="9.85449" width="9.66797" height="9.03955" filterUnits="userSpaceOnUse" color-interpolation-filters="sRGB">
<feFlood flood-opacity="0" result="BackgroundImageFix"/>
<feBlend mode="normal" in="SourceGraphic" in2="BackgroundImageFix" result="shape"/>
<feGaussianBlur stdDeviation="0.75" result="effect1_foregroundBlur_907_568"/>
</filter>
<filter id="filter5_f_907_568" x="13.1594" y="3.84248" width="6.15293" height="9.29502" filterUnits="userSpaceOnUse" color-interpolation-filters="sRGB">
<feFlood flood-opacity="0" result="BackgroundImageFix"/>
<feBlend mode="normal" in="SourceGraphic" in2="BackgroundImageFix" result="shape"/>
<feGaussianBlur stdDeviation="0.6" result="effect1_foregroundBlur_907_568"/>
</filter>
<filter id="filter6_f_907_568" x="14.8049" y="6.77852" width="3.85801" height="5.55674" filterUnits="userSpaceOnUse" color-interpolation-filters="sRGB">
<feFlood flood-opacity="0" result="BackgroundImageFix"/>
<feBlend mode="normal" in="SourceGraphic" in2="BackgroundImageFix" result="shape"/>
<feGaussianBlur stdDeviation="0.35" result="effect1_foregroundBlur_907_568"/>
</filter>
<filter id="filter7_i_907_568" x="15.1592" y="1.42148" width="4.4125" height="5.02236" filterUnits="userSpaceOnUse" color-interpolation-filters="sRGB">
<feFlood flood-opacity="0" result="BackgroundImageFix"/>
<feBlend mode="normal" in="SourceGraphic" in2="BackgroundImageFix" result="shape"/>
<feColorMatrix in="SourceAlpha" type="matrix" values="0 0 0 0 0 0 0 0 0 0 0 0 0 0 0 0 0 0 127 0" result="hardAlpha"/>
<feOffset dx="0.1" dy="-0.1"/>
<feGaussianBlur stdDeviation="0.25"/>
<feComposite in2="hardAlpha" operator="arithmetic" k2="-1" k3="1"/>
<feColorMatrix type="matrix" values="0 0 0 0 0.0823529 0 0 0 0 0.337255 0 0 0 0 0.627451 0 0 0 1 0"/>
<feBlend mode="normal" in2="shape" result="effect1_innerShadow_907_568"/>
</filter>
<filter id="filter8_i_907_568" x="13.5293" y="2.60508" width="4.67715" height="5.21572" filterUnits="userSpaceOnUse" color-interpolation-filters="sRGB">
<feFlood flood-opacity="0" result="BackgroundImageFix"/>
<feBlend mode="normal" in="SourceGraphic" in2="BackgroundImageFix" result="shape"/>
<feColorMatrix in="SourceAlpha" type="matrix" values="0 0 0 0 0 0 0 0 0 0 0 0 0 0 0 0 0 0 127 0" result="hardAlpha"/>
<feOffset dx="0.1" dy="-0.1"/>
<feGaussianBlur stdDeviation="0.25"/>
<feComposite in2="hardAlpha" operator="arithmetic" k2="-1" k3="1"/>
<feColorMatrix type="matrix" values="0 0 0 0 0.0823529 0 0 0 0 0.337255 0 0 0 0 0.627451 0 0 0 1 0"/>
<feBlend mode="normal" in2="shape" result="effect1_innerShadow_907_568"/>
</filter>
<filter id="filter9_f_907_568" x="7.57227" y="12.3486" width="4.33887" height="5.5708" filterUnits="userSpaceOnUse" color-interpolation-filters="sRGB">
<feFlood flood-opacity="0" result="BackgroundImageFix"/>
<feBlend mode="normal" in="SourceGraphic" in2="BackgroundImageFix" result="shape"/>
<feGaussianBlur stdDeviation="0.375" result="effect1_foregroundBlur_907_568"/>
</filter>
<filter id="filter10_f_907_568" x="10.5" y="4.86279" width="5.46094" height="8.84766" filterUnits="userSpaceOnUse" color-interpolation-filters="sRGB">
<feFlood flood-opacity="0" result="BackgroundImageFix"/>
<feBlend mode="normal" in="SourceGraphic" in2="BackgroundImageFix" result="shape"/>
<feGaussianBlur stdDeviation="0.5" result="effect1_foregroundBlur_907_568"/>
</filter>
<radialGradient id="paint0_radial_907_568" cx="0" cy="0" r="1" gradientUnits="userSpaceOnUse" gradientTransform="translate(17.7374 10.8711) rotate(99.3161) scale(12.5932 14.0586)">
<stop offset="0.815" stop-color="#B57393" stop-opacity="0"/>
<stop offset="1" stop-color="#B57393"/>
</radialGradient>
<linearGradient id="paint1_linear_907_568" x1="11.0655" y1="16.9701" x2="8.35345" y2="19.1174" gradientUnits="userSpaceOnUse">
<stop stop-color="#B57393" stop-opacity="0"/>
<stop offset="1" stop-color="#B57393"/>
</linearGradient>
<radialGradient id="paint2_radial_907_568" cx="0" cy="0" r="1" gradientUnits="userSpaceOnUse" gradientTransform="translate(17.417 8.4205) rotate(156.037) scale(3.07655 6.46385)">
<stop offset="0.719" stop-color="#CD8F7C" stop-opacity="0"/>
<stop offset="1" stop-color="#CD8F7C"/>
</radialGradient>
<radialGradient id="paint3_radial_907_568" cx="0" cy="0" r="1" gradientUnits="userSpaceOnUse" gradientTransform="translate(17.4165 8.42043) rotate(154.952) scale(3.86295 9.71948)">
<stop offset="0.769" stop-color="#C98769" stop-opacity="0"/>
<stop offset="1" stop-color="#C98769"/>
</radialGradient>
<linearGradient id="paint4_linear_907_568" x1="15.4102" y1="12.5" x2="15.105" y2="10.9212" gradientUnits="userSpaceOnUse">
<stop stop-color="#E4AB94"/>
<stop offset="1" stop-color="#E4AB94" stop-opacity="0"/>
</linearGradient>
<radialGradient id="paint5_radial_907_568" cx="0" cy="0" r="1" gradientUnits="userSpaceOnUse" gradientTransform="translate(18.3802 11.1442) rotate(-127.591) scale(2.79514 0.59784)">
<stop stop-color="#B17F61"/>
<stop offset="1" stop-color="#B17F61" stop-opacity="0"/>
</radialGradient>
<radialGradient id="paint6_radial_907_568" cx="0" cy="0" r="1" gradientUnits="userSpaceOnUse" gradientTransform="translate(14.7023 4.40124) rotate(84.463) scale(1.71902 2.14957)">
<stop stop-color="#C79A79"/>
<stop offset="1" stop-color="#C79A79" stop-opacity="0"/>
</radialGradient>
<radialGradient id="paint7_radial_907_568" cx="0" cy="0" r="1" gradientUnits="userSpaceOnUse" gradientTransform="translate(11.9764 11.7063) rotate(146.452) scale(2.62942 7.03735)">
<stop offset="0.425" stop-color="#CF927E" stop-opacity="0"/>
<stop offset="1" stop-color="#CF927E"/>
</radialGradient>
<radialGradient id="paint8_radial_907_568" cx="0" cy="0" r="1" gradientUnits="userSpaceOnUse" gradientTransform="translate(11.9766 11.7074) rotate(147.829) scale(3.43341 9.18915)">
<stop offset="0.625" stop-color="#C7865E" stop-opacity="0"/>
<stop offset="1" stop-color="#C7865E"/>
</radialGradient>
<radialGradient id="paint9_radial_907_568" cx="0" cy="0" r="1" gradientUnits="userSpaceOnUse" gradientTransform="translate(9.49856 13.1196) rotate(-32.6806) scale(2.95164 18.6827)">
<stop offset="0.692" stop-color="#C78764" stop-opacity="0"/>
<stop offset="1" stop-color="#C78764"/>
</radialGradient>
<linearGradient id="paint10_linear_907_568" x1="12.6096" y1="14.5191" x2="11.3203" y2="13.8396" gradientUnits="userSpaceOnUse">
<stop stop-color="#E4AB94"/>
<stop offset="1" stop-color="#E4AB94" stop-opacity="0"/>
</linearGradient>
<radialGradient id="paint11_radial_907_568" cx="0" cy="0" r="1" gradientUnits="userSpaceOnUse" gradientTransform="translate(9.55481 8.41335) rotate(83.1268) scale(1.72697 2.03961)">
<stop stop-color="#CC9D7A"/>
<stop offset="1" stop-color="#CC9D7A" stop-opacity="0"/>
</radialGradient>
<radialGradient id="paint12_radial_907_568" cx="0" cy="0" r="1" gradientUnits="userSpaceOnUse" gradientTransform="translate(19.1483 13.442) rotate(-77.656) scale(3.94671 1.70361)">
<stop stop-color="#DAA08C"/>
<stop offset="1" stop-color="#DAA08C" stop-opacity="0"/>
</radialGradient>
<radialGradient id="paint13_radial_907_568" cx="0" cy="0" r="1" gradientUnits="userSpaceOnUse" gradientTransform="translate(18.6097 8.73008) rotate(5.44835) scale(0.732082 2.65058)">
<stop stop-color="#BA7F5F"/>
<stop offset="1" stop-color="#BA7F5F" stop-opacity="0"/>
</radialGradient>
<radialGradient id="paint14_radial_907_568" cx="0" cy="0" r="1" gradientUnits="userSpaceOnUse" gradientTransform="translate(19.3499 6.87758) rotate(58.3164) scale(1.56992 5.68408)">
<stop stop-color="#BA7F5F"/>
<stop offset="1" stop-color="#BA7F5F" stop-opacity="0"/>
</radialGradient>
<radialGradient id="paint15_radial_907_568" cx="0" cy="0" r="1" gradientUnits="userSpaceOnUse" gradientTransform="translate(21.5278 8.26106) rotate(137.305) scale(1.30789 1.81631)">
<stop stop-color="#FDCEA8"/>
<stop offset="1" stop-color="#FDCEA8" stop-opacity="0"/>
</radialGradient>
<radialGradient id="paint16_radial_907_568" cx="0" cy="0" r="1" gradientUnits="userSpaceOnUse" gradientTransform="translate(22.1258 14.2851) rotate(113.948) scale(9.18097 4.5893)">
<stop stop-color="#FFCEAB"/>
<stop offset="1" stop-color="#FFCEAB" stop-opacity="0"/>
</radialGradient>
<radialGradient id="paint17_radial_907_568" cx="0" cy="0" r="1" gradientUnits="userSpaceOnUse" gradientTransform="translate(14.2047 9.36595) rotate(149.999) scale(3.24265 7.67527)">
<stop offset="0.655" stop-color="#D0927D" stop-opacity="0"/>
<stop offset="1" stop-color="#D0927D"/>
</radialGradient>
<radialGradient id="paint18_radial_907_568" cx="0" cy="0" r="1" gradientUnits="userSpaceOnUse" gradientTransform="translate(14.123 9.36644) rotate(155.961) scale(1.2575 7.9581)">
<stop stop-color="#B67A4E"/>
<stop offset="1" stop-color="#C98968" stop-opacity="0"/>
</radialGradient>
<linearGradient id="paint19_linear_907_568" x1="13.2417" y1="13.4767" x2="12.5975" y2="11.496" gradientUnits="userSpaceOnUse">
<stop stop-color="#E4AB94"/>
<stop offset="1" stop-color="#E4AB94" stop-opacity="0"/>
</linearGradient>
<radialGradient id="paint20_radial_907_568" cx="0" cy="0" r="1" gradientUnits="userSpaceOnUse" gradientTransform="translate(11.5842 5.00995) rotate(83.5812) scale(1.88683 2.08363)">
<stop stop-color="#CA9F7E"/>
<stop offset="1" stop-color="#CA9F7E" stop-opacity="0"/>
</radialGradient>
<radialGradient id="paint21_radial_907_568" cx="0" cy="0" r="1" gradientUnits="userSpaceOnUse" gradientTransform="translate(10.7347 13.91) rotate(140.042) scale(1.13133 3.83583)">
<stop stop-color="#E2A684"/>
<stop offset="1" stop-color="#E2A684" stop-opacity="0"/>
</radialGradient>
<radialGradient id="paint22_radial_907_568" cx="0" cy="0" r="1" gradientUnits="userSpaceOnUse" gradientTransform="translate(8.33995 11.9037) rotate(82.3931) scale(1.59375 2.07875)">
<stop stop-color="#CA9A78"/>
<stop offset="1" stop-color="#CA9A78" stop-opacity="0"/>
</radialGradient>
<linearGradient id="paint23_linear_907_568" x1="17.6245" y1="11.0979" x2="15.7727" y2="7.79336" gradientUnits="userSpaceOnUse">
<stop stop-color="#E3B397"/>
<stop offset="1" stop-color="#E3B397" stop-opacity="0"/>
</linearGradient>
<radialGradient id="paint24_radial_907_568" cx="0" cy="0" r="1" gradientUnits="userSpaceOnUse" gradientTransform="translate(17.1334 4.10168) rotate(-44.7093) scale(1.63244 4.17672)">
<stop stop-color="#16579C"/>
<stop offset="0.744" stop-color="#16579C" stop-opacity="0"/>
</radialGradient>
<radialGradient id="paint25_radial_907_568" cx="0" cy="0" r="1" gradientUnits="userSpaceOnUse" gradientTransform="translate(15.622 5.38727) rotate(-43.9171) scale(1.73532 4.43698)">
<stop stop-color="#16579C"/>
<stop offset="0.862" stop-color="#16579C" stop-opacity="0"/>
</radialGradient>
<linearGradient id="paint26_linear_907_568" x1="4.10206" y1="12.146" x2="6.49231" y2="17.1207" gradientUnits="userSpaceOnUse">
<stop stop-color="#1679C5"/>
<stop offset="1" stop-color="#0D5194"/>
</linearGradient>
<radialGradient id="paint27_radial_907_568" cx="0" cy="0" r="1" gradientUnits="userSpaceOnUse" gradientTransform="translate(4.62922 14.1097) rotate(164.814) scale(1.69999 4.57019)">
<stop offset="0.706" stop-color="#0E5196" stop-opacity="0"/>
<stop offset="1" stop-color="#0E5196"/>
</radialGradient>
<linearGradient id="paint28_linear_907_568" x1="2.62867" y1="13.5474" x2="5.43517" y2="19.6374" gradientUnits="userSpaceOnUse">
<stop offset="0.298" stop-color="#1679C5"/>
<stop offset="1" stop-color="#0D5194"/>
</linearGradient>
<radialGradient id="paint29_radial_907_568" cx="0" cy="0" r="1" gradientUnits="userSpaceOnUse" gradientTransform="translate(3.13267 15.3751) rotate(165.175) scale(1.62074 4.26324)">
<stop offset="0.706" stop-color="#0E5196" stop-opacity="0"/>
<stop offset="1" stop-color="#0E5196"/>
</radialGradient>
</defs>
</svg>
